<svg width="2610" height="807" viewBox="0 0 2610 807" fill="none" xmlns="http://www.w3.org/2000/svg">
<g clip-path="url(#clip0_208_28)">
<path fill-rule="evenodd" clip-rule="evenodd" d="M1365.6 0H2609.6V708.792H1818.03L1665.45 806.246L1637.1 708.792H1365.6V0ZM1373.6 8V700.792H1643.1L1670.15 793.754L1815.69 700.792H2601.6V8H1373.6Z" fill="white"/>
<path d="M0 529V179.182H140.064C165.799 179.182 187.264 182.997 204.459 190.626C221.654 198.256 234.579 208.846 243.233 222.397C251.887 235.834 256.214 251.32 256.214 268.857C256.214 282.522 253.482 294.535 248.016 304.898C242.55 315.146 235.034 323.573 225.469 330.178C216.017 336.668 205.199 341.28 193.015 344.013V347.429C206.338 347.999 218.807 351.757 230.422 358.703C242.151 365.649 251.66 375.385 258.947 387.911C266.235 400.323 269.879 415.127 269.879 432.322C269.879 450.883 265.267 467.452 256.044 482.027C246.934 496.489 233.44 507.933 215.562 516.36C197.684 524.787 175.649 529 149.458 529H0ZM73.9606 468.533H134.256C154.867 468.533 169.899 464.605 179.35 456.748C188.802 448.776 193.527 438.186 193.527 424.977C193.527 415.298 191.193 406.757 186.524 399.355C181.855 391.954 175.194 386.146 166.539 381.933C157.999 377.72 147.807 375.613 135.964 375.613H73.9606V468.533ZM73.9606 325.566H128.79C138.925 325.566 147.921 323.801 155.778 320.271C163.75 316.627 170.013 311.502 174.567 304.898C179.236 298.293 181.571 290.379 181.571 281.155C181.571 268.515 177.073 258.324 168.077 250.58C159.195 242.837 146.555 238.965 130.157 238.965H73.9606V325.566Z" fill="white"/>
<path d="M318.005 529V179.182H553.722V240.161H391.965V323.516H541.595V384.495H391.965V468.021H554.405V529H318.005Z" fill="white"/>
<path d="M905.12 179.182V529H841.238L689.046 308.826H686.484V529H612.523V179.182H677.431L828.427 399.185H831.501V179.182H905.12Z" fill="white"/>
<path d="M945.73 179.182H1028.57L1108.34 329.836H1111.76L1191.53 179.182H1274.37L1146.77 405.334V529H1073.33V405.334L945.73 179.182Z" fill="white"/>
<path d="M1588.6 529L1492.26 179.182H1503.88L1595.43 511.919H1596.8L1685.62 179.182H1700.65L1789.47 511.919H1790.84L1882.39 179.182H1894L1797.67 529H1782.64L1693.82 196.263H1692.45L1603.63 529H1588.6Z" fill="white"/>
<path d="M1962.11 529V179.182H2148.64V190.114H1973.05V348.625H2138.39V359.557H1973.05V518.068H2153.42V529H1962.11Z" fill="white"/>
<path d="M2243.01 529V179.182H2352.33C2371.92 179.182 2388.66 182.769 2402.55 189.943C2416.55 197.003 2427.26 207.195 2434.66 220.518C2442.18 233.727 2445.93 249.555 2445.93 268.003C2445.93 281.668 2443.83 294.251 2439.61 305.752C2435.51 317.253 2429.48 326.932 2421.51 334.789C2413.54 342.533 2403.91 347.828 2392.64 350.675V352.041C2405.28 353.066 2416.67 357.45 2426.8 365.194C2436.94 372.937 2444.91 383.186 2450.72 395.939C2456.64 408.693 2459.6 423.212 2459.6 439.496C2459.6 457.488 2455.78 473.202 2448.15 486.639C2440.64 500.076 2429.71 510.496 2415.36 517.897C2401.12 525.299 2383.99 529 2363.94 529H2243.01ZM2253.94 518.068H2363.94C2389.57 518.068 2410.06 510.894 2425.44 496.546C2440.92 482.084 2448.67 463.067 2448.67 439.496C2448.67 423.326 2445.02 409.035 2437.73 396.623C2430.45 384.21 2420.43 374.474 2407.67 367.414C2395.03 360.354 2380.46 356.824 2363.94 356.824H2253.94V518.068ZM2253.94 345.892H2363.94C2379.89 345.892 2393.1 342.305 2403.57 335.131C2414.05 327.957 2421.91 318.449 2427.14 306.606C2432.38 294.763 2435 281.895 2435 268.003C2435 243.179 2427.6 223.991 2412.8 210.44C2397.99 196.889 2377.84 190.114 2352.33 190.114H2253.94V345.892Z" fill="white"/>
</g>
<defs>
<clipPath id="clip0_208_28">
<rect width="2610" height="807" fill="white"/>
</clipPath>
</defs>
</svg>
